<svg width="15.3" height="15.3" viewBox="0 0 16.3 15.3" fill="none" xmlns="http://www.w3.org/2000/svg">
<path d="M11.2309 13.6403C9.61559 15.2057 7.39049 15.2003 5.77986 13.628C4.13135 15.3952 1.75883 15.1427 0.33313 13.1356V14.0194C0.33313 14.9277 1.12019 15.6666 2.08769 15.6666H14.9117C15.8792 15.6666 16.6661 14.9277 16.6661 14.0194V13.1356C15.2283 15.1604 12.8628 15.3756 11.2309 13.6403Z" fill="#806413"/>
<path d="M3.25758 13.9118C4.00924 13.9118 4.66857 13.4976 5.16977 12.9124C4.26445 11.6404 3.85497 9.82699 4.91045 8.66136C4.38209 8.4922 3.76226 8.46729 3.25758 8.46729C2.65669 8.46729 1.89256 8.50238 1.31361 8.77484C0.556828 9.13117 0.273955 9.8112 0.34324 10.6032C0.461249 12.0132 1.64857 13.9118 3.25758 13.9118Z" fill="#806413"/>
<path d="M15.6862 8.77484C15.1071 8.50238 14.3431 8.46729 13.7421 8.46729C13.2435 8.46729 12.6323 8.49162 12.1082 8.6554C13.171 9.82091 12.7637 11.6446 11.8431 12.9278C12.343 13.5049 12.9973 13.9118 13.7421 13.9118C15.4387 13.9118 16.6664 11.8009 16.6664 10.3776C16.6664 9.43428 16.1335 8.98541 15.6862 8.77484Z" fill="#806413"/>
<path d="M5.24084 10.3778C5.24084 11.8611 6.67166 13.9118 8.51195 13.9118C10.352 13.9118 11.7831 11.8613 11.7831 10.3778C11.7831 8.46729 9.49079 8.46729 8.51195 8.46729C7.53311 8.46729 5.24084 8.46729 5.24084 10.3778Z" fill="#806413"/>
<path d="M14.912 0.333496H2.08799C1.12049 0.333496 0.333557 1.07237 0.333557 1.98063V2.86445C1.77683 0.831731 4.14336 0.631221 5.7687 2.35978C7.38406 0.794413 9.60916 0.799795 11.2198 2.37206C12.8284 0.647715 15.207 0.808334 16.6664 2.86445V1.98063C16.6664 1.07237 15.8795 0.333496 14.912 0.333496Z" fill="#806413"/>
<path d="M3.25743 2.08789C1.56082 2.08789 0.33313 4.19887 0.33313 5.6221C0.33313 6.56545 0.866226 7.01432 1.31346 7.22489C1.89242 7.49735 2.65642 7.53244 3.25743 7.53244C3.75639 7.53244 4.36724 7.50811 4.89136 7.34433C3.82866 6.17882 4.23602 4.35516 5.15654 3.07196C4.65659 2.49488 4.00237 2.08789 3.25743 2.08789Z" fill="#806413"/>
<path d="M13.7417 2.08789C12.9902 2.08789 12.3309 2.50213 11.8293 3.08729C12.7351 4.35995 13.1445 6.17274 12.089 7.33837C12.6173 7.50753 13.237 7.53244 13.7417 7.53244C14.3427 7.53244 15.1067 7.49735 15.6858 7.22489C16.4426 6.86856 16.7253 6.18865 16.6562 5.39655C16.5382 3.98654 15.3509 2.08789 13.7417 2.08789Z" fill="#806413"/>
<path d="M8.48766 2.08789C6.65634 2.08789 5.21655 4.1295 5.21655 5.62198C5.21655 7.53244 7.50894 7.53244 8.48766 7.53244C9.46649 7.53244 11.7588 7.53244 11.7588 5.62198C11.7589 4.12879 10.3186 2.08789 8.48766 2.08789Z" fill="#806413"/>
</svg>
