<svg width="30" height="30" viewBox="0 0 30 30" fill="none" xmlns="http://www.w3.org/2000/svg">
<path d="M1.92443 14.8374C1.27537 13.7949 1.00056 12.5604 1.14566 11.339C1.29075 10.1176 1.8469 8.98294 2.7219 8.12368L3.48486 7.37511C3.82695 7.04315 4.28518 6.8603 4.7605 6.86628C5.23562 6.87226 5.68937 7.06659 6.02309 7.40706L9.13632 10.6385C9.46514 10.9792 9.64643 11.437 9.64053 11.9118C9.63463 12.3866 9.442 12.8397 9.10482 13.172C8.76636 13.5076 8.5732 13.9641 8.56726 14.4421C8.56131 14.9202 8.74306 15.3813 9.07306 15.7254L14.0664 20.8759C14.4001 21.2164 14.8538 21.4107 15.329 21.4167C15.8042 21.4227 16.2626 21.2398 16.6046 20.9079C16.9433 20.5771 17.3984 20.3947 17.8703 20.4006C18.3423 20.4066 18.7927 20.6004 19.123 20.9396L22.2576 24.0515C22.5876 24.3956 22.7694 24.8568 22.7634 25.3348C22.7575 25.8129 22.5643 26.2694 22.2259 26.6049L21.4629 27.3535C20.5991 28.2277 19.4635 28.7774 18.2455 28.9109C17.0274 29.0446 15.8007 28.7538 14.7701 28.0873C9.6798 24.5442 5.31794 20.0451 1.92443 14.8374Z" stroke="white" stroke-width="2" stroke-linecap="round" stroke-linejoin="round"/>
<path d="M26.8387 16.1287C26.8599 14.4259 26.5475 12.7356 25.9193 11.1542C25.2911 9.57291 24.3595 8.13155 23.1775 6.91243C21.9956 5.69329 20.5866 4.72031 19.0309 4.04899C17.4752 3.37768 15.8032 3.0212 14.1106 2.99989" stroke="white" stroke-width="2" stroke-linecap="round" stroke-linejoin="round"/>
<path d="M21.8812 16.0663C21.9076 13.9501 21.0971 11.91 19.6282 10.3948C18.1593 8.87965 16.1522 8.01356 14.0485 7.98709" stroke="white" stroke-width="2" stroke-linecap="round" stroke-linejoin="round"/>
</svg>
