<svg width="25" height="25" viewBox="0 0 25 25" fill="none" xmlns="http://www.w3.org/2000/svg">
<rect width="25" height="25" rx="12.5" fill="#673800"/>
<path fill-rule="evenodd" clip-rule="evenodd" d="M13.6732 6.10103C13.5183 6.07759 13.3627 6.12593 13.2389 6.22995C13.1116 6.33543 13.0321 6.4878 13.0148 6.65848C12.9782 7.00349 13.214 7.31555 13.5404 7.35437C15.7916 7.61954 17.5413 9.47063 17.7945 11.8543C17.8283 12.1736 18.0822 12.4146 18.3851 12.4146C18.4079 12.4146 18.43 12.4132 18.4529 12.4102C18.6112 12.3919 18.7523 12.3091 18.8519 12.1773C18.9508 12.0454 18.9958 11.8814 18.9778 11.7136C18.6624 8.73957 16.4818 6.43139 13.6732 6.10103ZM13.7164 8.65343C13.3859 8.58896 13.0823 8.81165 13.0193 9.15227C12.9564 9.4929 13.168 9.82546 13.4896 9.89212C14.4578 10.0914 15.2055 10.8825 15.395 11.908V11.9088C15.4489 12.204 15.6951 12.4186 15.9787 12.4186C16.0167 12.4186 16.0547 12.4149 16.0935 12.4076C16.4151 12.3395 16.6267 12.0076 16.5638 11.6663C16.2809 10.1346 15.164 8.95156 13.7164 8.65343ZM14.815 15.6909C15.1286 15.5001 15.4827 15.2846 15.9294 15.3849C16.3339 15.475 17.713 16.6565 18.0906 17.066C18.3382 17.3341 18.4758 17.611 18.4973 17.8879C18.5346 18.9742 17.1362 20.2144 16.8817 20.3689C16.5435 20.6261 16.15 20.7557 15.708 20.7557C15.2564 20.7557 14.7529 20.6202 14.2038 20.3499C11.2244 19.0372 6.673 14.3278 5.46962 11.2073C4.97029 10.0455 4.96683 9.08737 5.46132 8.3673C5.65843 8.02961 6.78227 6.61804 7.78855 6.66273C8.0562 6.6869 8.31624 6.83194 8.57144 7.09565C8.95735 7.49487 10.0487 8.95479 10.1331 9.38331C10.2264 9.85945 10.0217 10.2382 9.83983 10.5707C9.80103 10.6422 9.74876 10.7271 9.6915 10.82C9.47416 11.1728 9.18489 11.6423 9.28724 11.942C10.021 13.8436 11.7161 15.5028 13.5184 16.2822C13.7972 16.3891 14.2417 16.0816 14.5748 15.8512C14.6616 15.7911 14.7408 15.7363 14.8076 15.6954L14.815 15.6909Z" fill="#FFE7CF"/>
</svg>
